<?xml version="1.0" encoding="UTF-8" standalone="no"?>
<svg
   xmlns:dc="http://purl.org/dc/elements/1.1/"
   xmlns:cc="http://creativecommons.org/ns#"
   xmlns:rdf="http://www.w3.org/1999/02/22-rdf-syntax-ns#"
   xmlns:svg="http://www.w3.org/2000/svg"
   xmlns="http://www.w3.org/2000/svg"
   xmlns:xlink="http://www.w3.org/1999/xlink"
   id="svg4296"
   height="48"
   width="48"
   version="1.1">
  <defs
     id="defs4298">
    <linearGradient
       id="linearGradient4199">
      <stop
         id="stop4201"
         style="stop-color:#ffffff;stop-opacity:1"
         offset="0" />
      <stop
         id="stop4203"
         style="stop-color:#fafafa;stop-opacity:1"
         offset="0.26238" />
      <stop
         id="stop4205"
         style="stop-color:#d4d4d4;stop-opacity:1"
         offset="0.704952" />
      <stop
         id="stop4207"
         style="stop-color:#abacae;stop-opacity:1"
         offset="1" />
    </linearGradient>
    <linearGradient
       id="linearGradient3462">
      <stop
         offset="0"
         style="stop-color:#ffffff;stop-opacity:1"
         id="stop3464" />
      <stop
         offset="0.03457849"
         style="stop-color:#ffffff;stop-opacity:0.23529412"
         id="stop3466" />
      <stop
         offset="0.96375686"
         style="stop-color:#ffffff;stop-opacity:0.15686275"
         id="stop3468" />
      <stop
         offset="1"
         style="stop-color:#ffffff;stop-opacity:0.39215687"
         id="stop3470" />
    </linearGradient>
    <linearGradient
       x1="302.85715"
       y1="366.64789"
       x2="302.85715"
       y2="609.50507"
       id="linearGradient19619"
       xlink:href="#linearGradient5048"
       gradientUnits="userSpaceOnUse"
       gradientTransform="matrix(0.08449704,0,0,0.01235294,-6.5396456,38.470822)" />
    <linearGradient
       id="linearGradient5048">
      <stop
         id="stop5050"
         style="stop-color:#000000;stop-opacity:0"
         offset="0" />
      <stop
         id="stop5056"
         style="stop-color:#000000;stop-opacity:1"
         offset="0.5" />
      <stop
         id="stop5052"
         style="stop-color:#000000;stop-opacity:0"
         offset="1" />
    </linearGradient>
    <radialGradient
       cx="605.71429"
       cy="486.64789"
       r="117.14286"
       fx="605.71429"
       fy="486.64789"
       id="radialGradient19616"
       xlink:href="#linearGradient5060"
       gradientUnits="userSpaceOnUse"
       gradientTransform="matrix(-0.0289166,0,0,0.01235294,21.026894,38.470848)" />
    <linearGradient
       id="linearGradient5060">
      <stop
         id="stop5062"
         style="stop-color:#000000;stop-opacity:1"
         offset="0" />
      <stop
         id="stop5064"
         style="stop-color:#000000;stop-opacity:0"
         offset="1" />
    </linearGradient>
    <radialGradient
       cx="605.71429"
       cy="486.64789"
       r="117.14286"
       fx="605.71429"
       fy="486.64789"
       id="radialGradient19613"
       xlink:href="#linearGradient5060"
       gradientUnits="userSpaceOnUse"
       gradientTransform="matrix(0.02891661,0,0,0.01235294,26.973101,38.470848)" />
    <linearGradient
       y2="42.437775"
       x2="40.290417"
       y1="5.4143372"
       x1="40.290417"
       gradientTransform="matrix(1.1621621,0,0,0.91891888,-3.8918941,4.4459492)"
       gradientUnits="userSpaceOnUse"
       id="linearGradient4088"
       xlink:href="#linearGradient3462" />
    <radialGradient
       r="12.671875"
       fy="9.9571075"
       fx="7.1183534"
       cy="9.9571075"
       cx="7.1183534"
       gradientTransform="matrix(0,8.4371492,-12.947656,0,153.88012,-68.473106)"
       gradientUnits="userSpaceOnUse"
       id="radialGradient4091"
       xlink:href="#linearGradient4199" />
  </defs>
  <metadata
     id="metadata4301">
    <rdf:RDF>
      <cc:Work
         rdf:about="">
        <dc:format>image/svg+xml</dc:format>
        <dc:type
           rdf:resource="http://purl.org/dc/dcmitype/StillImage" />
        <dc:title />
      </cc:Work>
    </rdf:RDF>
  </metadata>
  <g
     id="g1033">
    <g
       id="g4209">
      <g
         style="opacity:0.4"
         id="g3257">
        <path
           style="fill:url(#radialGradient19613);fill-opacity:1;fill-rule:nonzero;stroke:none;stroke-width:1;marker:none;visibility:visible;display:inline;overflow:visible"
           id="path2883"
           d="m 44.4,43.00013 c 0,0 0,2.999835 0,2.999835 1.489133,0.0056 3.6,-0.672111 3.6,-1.500111 0,-0.827998 -1.661761,-1.499723 -3.6,-1.499724 z" />
        <path
           style="fill:url(#radialGradient19616);fill-opacity:1;fill-rule:nonzero;stroke:none;stroke-width:1;marker:none;visibility:visible;display:inline;overflow:visible"
           id="path2881"
           d="m 3.6,43.00013 c 0,0 0,2.999835 0,2.999835 C 2.1108662,46.005612 0,45.327854 0,44.499854 0,43.671856 1.6617608,43.000131 3.6,43.00013 z" />
        <rect
           style="fill:url(#linearGradient19619);fill-opacity:1;fill-rule:nonzero;stroke:none;stroke-width:1;marker:none;visibility:visible;display:inline;overflow:visible"
           id="rect2879"
           y="43"
           x="3.5999999"
           height="2.9999998"
           width="40.799999" />
      </g>
      <rect
         style="color:#000000;display:inline;overflow:visible;visibility:visible;opacity:1;fill:url(#radialGradient4091);fill-opacity:1;fill-rule:nonzero;stroke:none;stroke-width:0.99999994;marker:none;enable-background:accumulate"
         id="rect5505-21-3-8-5-2"
         y="9"
         x="2"
         ry="1"
         rx="1"
         height="35"
         width="44" />
      <rect
         style="opacity:1;fill:none;stroke:url(#linearGradient4088);stroke-width:1;stroke-linecap:round;stroke-linejoin:round;stroke-miterlimit:4;stroke-dasharray:none;stroke-dashoffset:0;stroke-opacity:1"
         id="rect6741-5-0-2-3"
         y="9.5"
         x="2.5"
         ry="0.5"
         rx="0.5"
         height="34"
         width="43" />
      <rect
         style="opacity:0.3;color:#000000;fill:none;stroke:#000000;stroke-width:1;stroke-linecap:round;stroke-linejoin:round;stroke-miterlimit:4;stroke-opacity:1;stroke-dasharray:none;stroke-dashoffset:0;marker:none;visibility:visible;display:inline;overflow:visible;enable-background:accumulate"
         id="rect5505-21-3-8-9-1-1"
         y="8.5"
         x="1.4999995"
         ry="1.5"
         rx="1.5"
         height="36"
         width="45" />
    </g>
    <path
       style="font-style:normal;font-variant:normal;font-weight:normal;font-stretch:normal;font-size:medium;line-height:1.25;font-family:Raleway;-inkscape-font-specification:'Raleway, Normal';font-variant-ligatures:normal;font-variant-caps:normal;font-variant-numeric:normal;font-feature-settings:normal;text-align:start;letter-spacing:0px;word-spacing:0px;writing-mode:lr-tb;text-anchor:start;fill:#555761;fill-opacity:1;stroke:none"
       d="M 17.003906 12.287109 C 16.427906 12.287109 15.894964 12.410917 15.404297 12.65625 C 14.91363 12.901583 14.485714 13.242354 14.123047 13.679688 C 13.771047 14.106354 13.493682 14.619464 13.291016 15.216797 C 13.088349 15.803464 12.988281 16.448344 12.988281 17.152344 C 12.988281 17.856344 13.088349 18.506182 13.291016 19.103516 C 13.493682 19.690182 13.771047 20.203292 14.123047 20.640625 C 14.485714 21.067292 14.91363 21.403104 15.404297 21.648438 C 15.894964 21.883104 16.427906 22 17.003906 22 C 17.579906 22 18.112849 21.883104 18.603516 21.648438 C 19.094182 21.403104 19.515187 21.067292 19.867188 20.640625 C 20.229854 20.203292 20.512177 19.690182 20.714844 19.103516 C 20.91751 18.506182 21.019531 17.856344 21.019531 17.152344 C 21.019531 16.448344 20.91751 15.803464 20.714844 15.216797 C 20.512177 14.619464 20.229854 14.106354 19.867188 13.679688 C 19.515187 13.242354 19.094182 12.901583 18.603516 12.65625 C 18.112849 12.410917 17.579906 12.287109 17.003906 12.287109 z M 8.6074219 12.703125 C 8.5860885 12.756458 8.4860208 12.863437 8.3046875 13.023438 C 8.1233542 13.183437 7.8994792 13.353823 7.6328125 13.535156 C 7.3768125 13.71649 7.0994479 13.876958 6.8007812 14.015625 C 6.5127812 14.154292 6.2453333 14.224609 6 14.224609 L 6 15.279297 C 6.2026667 15.279297 6.4364583 15.237677 6.703125 15.152344 C 6.9697917 15.06701 7.2273229 14.960031 7.4726562 14.832031 C 7.7286562 14.704031 7.9574896 14.565349 8.1601562 14.416016 C 8.3734896 14.266682 8.5220885 14.128 8.6074219 14 L 8.6074219 20.847656 L 6.3359375 20.847656 L 6.3359375 21.839844 L 11.759766 21.839844 L 11.759766 20.847656 L 9.7285156 20.847656 L 9.7285156 12.703125 L 8.6074219 12.703125 z M 17.003906 13.3125 C 17.430573 13.3125 17.819875 13.407609 18.171875 13.599609 C 18.534542 13.780943 18.843609 14.043432 19.099609 14.384766 C 19.355609 14.715432 19.55274 15.114651 19.691406 15.583984 C 19.84074 16.053318 19.916016 16.576344 19.916016 17.152344 C 19.916016 17.728344 19.84074 18.25137 19.691406 18.720703 C 19.55274 19.190036 19.355609 19.594214 19.099609 19.935547 C 18.843609 20.266214 18.534542 20.521792 18.171875 20.703125 C 17.819875 20.884458 17.430573 20.976562 17.003906 20.976562 C 16.566573 20.976562 16.167354 20.884458 15.804688 20.703125 C 15.452687 20.521792 15.148578 20.266214 14.892578 19.935547 C 14.636578 19.594214 14.432536 19.190036 14.283203 18.720703 C 14.144536 18.25137 14.076172 17.728344 14.076172 17.152344 C 14.076172 16.576344 14.144536 16.053318 14.283203 15.583984 C 14.432536 15.114651 14.636578 14.715432 14.892578 14.384766 C 15.148578 14.043432 15.452687 13.780943 15.804688 13.599609 C 16.167354 13.407609 16.566573 13.3125 17.003906 13.3125 z "
       id="path886" />
    <path
       style="opacity:0.8;fill:none;stroke:#7e8087;stroke-width:1px;stroke-linecap:butt;stroke-linejoin:miter;stroke-opacity:1"
       d="m 23,14.5 h 8"
       id="path855" />
    <path
       style="opacity:0.8;fill:none;stroke:#7e8087;stroke-width:1px;stroke-linecap:butt;stroke-linejoin:miter;stroke-opacity:1"
       d="M 32,14.5 H 42"
       id="path857" />
    <path
       style="opacity:1;fill:none;stroke:#abacae;stroke-width:1px;stroke-linecap:butt;stroke-linejoin:miter;stroke-opacity:1"
       d="m 23,18.5 h 4"
       id="path859" />
    <path
       style="opacity:1;fill:none;stroke:#abacae;stroke-width:1px;stroke-linecap:butt;stroke-linejoin:miter;stroke-opacity:1"
       d="m 28,18.5 h 4"
       id="path861" />
    <path
       style="opacity:1;fill:none;stroke:#abacae;stroke-width:1px;stroke-linecap:butt;stroke-linejoin:miter;stroke-opacity:1"
       d="m 33,18.5 h 7"
       id="path863" />
    <path
       style="opacity:1;fill:none;stroke:#abacae;stroke-width:1px;stroke-linecap:butt;stroke-linejoin:miter;stroke-opacity:1"
       d="m 33,18.5 h 8"
       id="path865" />
    <path
       style="opacity:1;fill:none;stroke:#abacae;stroke-width:1px;stroke-linecap:butt;stroke-linejoin:miter;stroke-opacity:1"
       d="m 22,21.5 h 8"
       id="path867" />
    <path
       style="opacity:1;fill:none;stroke:#abacae;stroke-width:1px;stroke-linecap:butt;stroke-linejoin:miter;stroke-opacity:1"
       d="m 31,21.5 h 6"
       id="path869" />
    <path
       style="opacity:1;fill:none;stroke:#abacae;stroke-width:1px;stroke-linecap:butt;stroke-linejoin:miter;stroke-opacity:1"
       d="m 38,21.5 h 4"
       id="path871" />
    <path
       style="opacity:1;fill:none;stroke:#abacae;stroke-width:1px;stroke-linecap:butt;stroke-linejoin:miter;stroke-opacity:1"
       d="M 18.5,24.5 H 26"
       id="path873" />
    <path
       style="opacity:1;fill:none;stroke:#abacae;stroke-width:1px;stroke-linecap:butt;stroke-linejoin:miter;stroke-opacity:1"
       d="m 27,24.5 h 8"
       id="path875" />
    <path
       style="opacity:1;fill:none;stroke:#abacae;stroke-width:1px;stroke-linecap:butt;stroke-linejoin:miter;stroke-opacity:1"
       d="m 36,24.5 h 5"
       id="path877" />
    <path
       style="fill:none;stroke:#abacae;stroke-width:1px;stroke-linecap:butt;stroke-linejoin:miter;stroke-opacity:1"
       d="m 16,27.5 h 7"
       id="path883" />
    <path
       style="fill:none;stroke:#abacae;stroke-width:1px;stroke-linecap:butt;stroke-linejoin:miter;stroke-opacity:1"
       d="m 24,27.5 h 3"
       id="path885" />
    <path
       style="fill:none;stroke:#abacae;stroke-width:1px;stroke-linecap:butt;stroke-linejoin:miter;stroke-opacity:1"
       d="m 28,27.5 h 4"
       id="path887" />
    <path
       style="fill:none;stroke:#abacae;stroke-width:1px;stroke-linecap:butt;stroke-linejoin:miter;stroke-opacity:1"
       d="m 33,27.5 h 5"
       id="path889" />
    <path
       style="fill:none;stroke:#abacae;stroke-width:1px;stroke-linecap:butt;stroke-linejoin:miter;stroke-opacity:1"
       d="m 39,27.5 h 3"
       id="path891" />
    <path
       style="fill:none;stroke:#abacae;stroke-width:1px;stroke-linecap:butt;stroke-linejoin:miter;stroke-opacity:1"
       d="m 17,30.5 h 8"
       id="path899" />
    <path
       style="fill:none;stroke:#abacae;stroke-width:1px;stroke-linecap:butt;stroke-linejoin:miter;stroke-opacity:1"
       d="m 26,30.5 h 8"
       id="path901" />
    <path
       style="fill:none;stroke:#abacae;stroke-width:1px;stroke-linecap:butt;stroke-linejoin:miter;stroke-opacity:1"
       d="m 35,30.5 h 7"
       id="path903" />
    <path
       style="fill:none;stroke:#abacae;stroke-width:1px;stroke-linecap:butt;stroke-linejoin:miter;stroke-opacity:1"
       d="m 16,33.5 h 3"
       id="path911" />
    <path
       style="fill:none;stroke:#abacae;stroke-width:1px;stroke-linecap:butt;stroke-linejoin:miter;stroke-opacity:1"
       d="m 20,33.5 h 5"
       id="path913" />
    <path
       style="fill:none;stroke:#abacae;stroke-width:1px;stroke-linecap:butt;stroke-linejoin:miter;stroke-opacity:1"
       d="m 26,33.5 h 5"
       id="path915" />
    <path
       style="fill:none;stroke:#abacae;stroke-width:1px;stroke-linecap:butt;stroke-linejoin:miter;stroke-opacity:1"
       d="M 32,33.5 H 42"
       id="path917" />
    <path
       id="path946"
       d="M 41,36.5 H 35"
       style="fill:none;stroke:#abacae;stroke-width:1px;stroke-linecap:butt;stroke-linejoin:miter;stroke-opacity:1" />
    <path
       id="path948"
       d="M 34,36.5 H 23"
       style="fill:none;stroke:#abacae;stroke-width:1px;stroke-linecap:butt;stroke-linejoin:miter;stroke-opacity:1" />
    <path
       id="path950"
       d="M 22,36.5 H 16"
       style="fill:none;stroke:#abacae;stroke-width:1px;stroke-linecap:butt;stroke-linejoin:miter;stroke-opacity:1" />
    <path
       id="path958"
       d="M 42,39.5 H 40"
       style="fill:none;stroke:#abacae;stroke-width:1px;stroke-linecap:butt;stroke-linejoin:miter;stroke-opacity:1" />
    <path
       id="path960"
       d="M 39,39.5 H 34"
       style="fill:none;stroke:#abacae;stroke-width:1px;stroke-linecap:butt;stroke-linejoin:miter;stroke-opacity:1" />
    <path
       id="path962"
       d="M 33,39.5 H 30"
       style="fill:none;stroke:#abacae;stroke-width:1px;stroke-linecap:butt;stroke-linejoin:miter;stroke-opacity:1" />
    <path
       id="path964"
       d="M 29,39.5 H 21"
       style="fill:none;stroke:#abacae;stroke-width:1px;stroke-linecap:butt;stroke-linejoin:miter;stroke-opacity:1" />
    <path
       id="path966"
       d="M 20,39.5 H 16"
       style="fill:none;stroke:#abacae;stroke-width:1px;stroke-linecap:butt;stroke-linejoin:miter;stroke-opacity:1" />
  </g>
</svg>
