<?xml version="1.0" encoding="UTF-8" standalone="no"?>
<svg
   xmlns:dc="http://purl.org/dc/elements/1.1/"
   xmlns:cc="http://creativecommons.org/ns#"
   xmlns:rdf="http://www.w3.org/1999/02/22-rdf-syntax-ns#"
   xmlns:svg="http://www.w3.org/2000/svg"
   xmlns="http://www.w3.org/2000/svg"
   xmlns:xlink="http://www.w3.org/1999/xlink"
   id="svg6436"
   height="24"
   width="24"
   version="1.1">
  <defs
     id="defs6438">
    <linearGradient
       id="linearGradient5747">
      <stop
         offset="0"
         style="stop-color:#000000;stop-opacity:1"
         id="stop5749" />
      <stop
         offset="1"
         style="stop-color:#000000;stop-opacity:0"
         id="stop5751" />
    </linearGradient>
    <radialGradient
       gradientTransform="matrix(1.2022704,0,0,0.59999988,14.99287,-4.59993)"
       gradientUnits="userSpaceOnUse"
       xlink:href="#linearGradient5747"
       id="radialGradient4358-2"
       r="2.5"
       cy="43.5"
       cx="4.993" />
    <radialGradient
       gradientTransform="matrix(1.2022704,0,0,0.59999988,-9.00712,-47.60006)"
       gradientUnits="userSpaceOnUse"
       xlink:href="#linearGradient5747"
       id="radialGradient4360-3"
       r="2.5"
       cy="43.5"
       cx="4.993" />
    <linearGradient
       spreadMethod="reflect"
       gradientTransform="matrix(0.6428571,0,0,0.42857134,-3.42854,2.85721)"
       gradientUnits="userSpaceOnUse"
       xlink:href="#linearGradient5747"
       id="linearGradient4362-5"
       y2="39.999001"
       x2="25.058001"
       y1="43.528"
       x1="25.058001" />
    <linearGradient
       id="linearGradient3462">
      <stop
         offset="0"
         style="stop-color:#ffffff;stop-opacity:1"
         id="stop3464" />
      <stop
         offset="0.00850883"
         style="stop-color:#ffffff;stop-opacity:0.23529412"
         id="stop3466" />
      <stop
         offset="0.9969551"
         style="stop-color:#ffffff;stop-opacity:0.15686275"
         id="stop3468" />
      <stop
         offset="1"
         style="stop-color:#ffffff;stop-opacity:0.39215687"
         id="stop3470" />
    </linearGradient>
    <linearGradient
       y2="23.889711"
       x2="5.7547193"
       y1="-1.5854332"
       x1="5.7547193"
       gradientTransform="matrix(0.78387745,0,0,0.62137281,12.324512,5.0785711)"
       gradientUnits="userSpaceOnUse"
       id="linearGradient4263"
       xlink:href="#linearGradient3462" />
    <radialGradient
       cx="6.7304144"
       cy="9.5882797"
       r="12.671875"
       fx="6.2001843"
       fy="9.5882797"
       id="radialGradient3215"
       xlink:href="#linearGradient2867-449-88-871-390-598-476-591-434-148-57-177-8-3-3-6-4-8-8-8-5"
       gradientUnits="userSpaceOnUse"
       gradientTransform="matrix(0,4.627013,-5.6804933,0,66.466161,-41.245091)" />
    <linearGradient
       id="linearGradient2867-449-88-871-390-598-476-591-434-148-57-177-8-3-3-6-4-8-8-8-5">
      <stop
         id="stop3750-1-0-7-6-6-1-3-9-3"
         style="stop-color:#ffffff;stop-opacity:1"
         offset="0" />
      <stop
         id="stop3752-3-7-4-0-32-8-923-0-7"
         style="stop-color:#fafafa;stop-opacity:1"
         offset="0.26238" />
      <stop
         id="stop3754-1-8-5-2-7-6-7-1-9"
         style="stop-color:#d4d4d4;stop-opacity:1"
         offset="0.704952" />
      <stop
         id="stop3756-1-6-2-6-6-1-96-6-0"
         style="stop-color:#abacae;stop-opacity:1"
         offset="1" />
    </linearGradient>
  </defs>
  <metadata
     id="metadata6441">
    <rdf:RDF>
      <cc:Work
         rdf:about="">
        <dc:format>image/svg+xml</dc:format>
        <dc:type
           rdf:resource="http://purl.org/dc/dcmitype/StillImage" />
        <dc:title />
      </cc:Work>
    </rdf:RDF>
  </metadata>
  <g
     id="g979">
    <g
       id="g905">
      <g
         transform="translate(0,-0.10006294)"
         id="g4325">
        <rect
           width="3"
           height="2.9999993"
           x="21"
           y="20.000063"
           id="rect2801-0"
           style="opacity:0.4;fill:url(#radialGradient4358-2);fill-opacity:1" />
        <rect
           width="3"
           height="2.9999993"
           x="-3"
           y="-23.000063"
           transform="scale(-1,-1)"
           id="rect3696-08"
           style="opacity:0.4;fill:url(#radialGradient4360-3);fill-opacity:1" />
        <rect
           width="18"
           height="2.9999993"
           x="3"
           y="20.000063"
           id="rect3700-96"
           style="opacity:0.4;fill:url(#linearGradient4362-5);fill-opacity:1" />
      </g>
      <rect
         style="color:#000000;clip-rule:nonzero;display:inline;overflow:visible;visibility:visible;opacity:1;isolation:auto;mix-blend-mode:normal;color-interpolation:sRGB;color-interpolation-filters:linearRGB;solid-color:#000000;solid-opacity:1;fill:url(#radialGradient3215);fill-opacity:1;fill-rule:nonzero;stroke:none;stroke-width:0.99999994;stroke-linecap:butt;stroke-linejoin:miter;stroke-miterlimit:4;stroke-dasharray:none;stroke-dashoffset:0;stroke-opacity:1;marker:none;color-rendering:auto;image-rendering:auto;shape-rendering:auto;text-rendering:auto;enable-background:accumulate"
         id="rect4219"
         width="22"
         height="18"
         x="1"
         y="3"
         rx="0.5"
         ry="0.5" />
      <rect
         ry="1"
         rx="1"
         y="2.5"
         x="0.5"
         height="19"
         width="23"
         id="rect4217"
         style="color:#000000;clip-rule:nonzero;display:inline;overflow:visible;visibility:visible;opacity:0.3;isolation:auto;mix-blend-mode:normal;color-interpolation:sRGB;color-interpolation-filters:linearRGB;solid-color:#000000;solid-opacity:1;fill:none;fill-opacity:1;fill-rule:nonzero;stroke:#000000;stroke-width:1;stroke-linecap:round;stroke-linejoin:round;stroke-miterlimit:4;stroke-dasharray:none;stroke-dashoffset:0;stroke-opacity:1;color-rendering:auto;image-rendering:auto;shape-rendering:auto;text-rendering:auto;enable-background:accumulate" />
      <rect
         style="color:#000000;clip-rule:nonzero;display:inline;overflow:visible;visibility:visible;opacity:1;isolation:auto;mix-blend-mode:normal;color-interpolation:sRGB;color-interpolation-filters:linearRGB;solid-color:#000000;solid-opacity:1;fill:none;fill-opacity:1;fill-rule:nonzero;stroke:url(#linearGradient4263);stroke-width:0.99999982;stroke-linecap:round;stroke-linejoin:round;stroke-miterlimit:4;stroke-dasharray:none;stroke-dashoffset:0;stroke-opacity:1;color-rendering:auto;image-rendering:auto;shape-rendering:auto;text-rendering:auto;enable-background:accumulate"
         id="rect4234"
         width="21"
         height="17"
         x="1.5"
         y="3.5"
         rx="0"
         ry="0" />
    </g>
    <path
       style="font-style:normal;font-variant:normal;font-weight:normal;font-stretch:normal;font-size:medium;line-height:1.25;font-family:Raleway;-inkscape-font-specification:'Raleway, Normal';font-variant-ligatures:normal;font-variant-caps:normal;font-variant-numeric:normal;font-feature-settings:normal;text-align:start;letter-spacing:0px;word-spacing:0px;writing-mode:lr-tb;text-anchor:start;fill:#555761;fill-opacity:1;stroke:none;stroke-width:0.99999994"
       d="M 10.325922,5 C 9.9424461,5 9.5876358,5.0892356 9.2609712,5.2660634 8.9343067,5.4428908 8.6500687,5.6878023 8.408621,6.0030166 8.1742748,6.3105427 7.9896175,6.6789658 7.8546908,7.1095023 7.7197643,7.5323506 7.6518431,7.9978611 7.6518431,8.505279 c 0,0.5074181 0.067921,0.9757987 0.2028477,1.4063345 0.1349267,0.4228495 0.319584,0.7933845 0.5539302,1.1085975 0.2414477,0.307527 0.5256857,0.549568 0.8523502,0.726395 C 9.5876358,11.915746 9.9424461,12 10.325922,12 c 0.383476,0 0.738285,-0.08425 1.06495,-0.253394 0.326664,-0.176827 0.608251,-0.418868 0.842598,-0.726395 0.241448,-0.315213 0.428756,-0.685748 0.563682,-1.1085975 C 12.932079,9.4810777 13,9.0126971 13,8.505279 13,7.9978611 12.932083,7.5323506 12.797152,7.1095023 12.662226,6.6789658 12.474918,6.3105427 12.23347,6.0030166 11.999123,5.6878023 11.717536,5.4428908 11.390872,5.2660634 11.064207,5.0892359 10.709398,5 10.325922,5 Z M 4.7359079,5.2998492 C 4.7217051,5.3382899 4.6537841,5.4146928 4.5330602,5.5300151 4.4123365,5.6453374 4.2639404,5.7688489 4.0864053,5.8995476 3.9159717,6.030246 3.7313145,6.1459062 3.5324751,6.2458522 3.3407373,6.3457981 3.1633322,6.3957767 3,6.3957767 v 0.760181 c 0.1349266,1e-7 0.2905749,-0.029294 0.46811,-0.090799 C 3.6456451,7.0036532 3.8157979,6.9251387 3.9791301,6.8328808 4.1495637,6.740623 4.3025612,6.6406658 4.4374878,6.5330317 4.5795158,6.4253975 4.6790967,6.3254404 4.7359079,6.2331825 V 11.170136 H 3.2243027 v 0.713725 H 6.8346012 V 11.170136 H 5.480983 V 5.2998492 Z m 5.5900141,0.437104 c 0.284056,0 0.543886,0.070663 0.778232,0.2090498 0.241448,0.1306987 0.445911,0.3177801 0.616345,0.5638009 0.170434,0.2383328 0.301674,0.5274831 0.393993,0.8657617 0.09942,0.3382788 0.150185,0.7145532 0.150185,1.1297134 0,0.4151602 -0.05077,0.7914348 -0.150185,1.1297135 -0.09231,0.3382787 -0.223559,0.6302995 -0.393993,0.8763195 -0.170434,0.238334 -0.374897,0.424656 -0.616345,0.555355 -0.234346,0.130698 -0.494176,0.194268 -0.778232,0.194268 -0.291158,0 -0.5582407,-0.06357 -0.7996884,-0.194268 C 9.2918874,10.935968 9.0900747,10.749646 8.9196411,10.511312 8.7492074,10.265292 8.6153158,9.9732712 8.5158962,9.6349925 8.4235779,9.2967138 8.3774136,8.9204392 8.3774136,8.505279 c 0,-0.4151602 0.046164,-0.7914346 0.1384826,-1.1297134 C 8.6153158,7.037287 8.7492074,6.7481367 8.9196411,6.5098039 9.0900747,6.2637831 9.2918874,6.0767017 9.5262336,5.946003 9.7676813,5.8076163 10.034764,5.7369532 10.325922,5.7369532 Z"
       id="path900" />
    <path
       style="opacity:0.8;fill:none;stroke:#7e8087;stroke-width:1px;stroke-linecap:butt;stroke-linejoin:miter;stroke-opacity:1"
       d="m 14,6.5 h 3"
       id="path855" />
    <path
       style="opacity:0.8;fill:none;stroke:#7e8087;stroke-width:1px;stroke-linecap:butt;stroke-linejoin:miter;stroke-opacity:1"
       d="m 18,6.5 h 3"
       id="path857-7" />
    <path
       style="opacity:1;fill:none;stroke:#abacae;stroke-width:1px;stroke-linecap:butt;stroke-linejoin:miter;stroke-opacity:1"
       d="m 15,9.5 h 2"
       id="path859" />
    <path
       style="opacity:1;fill:none;stroke:#abacae;stroke-width:1px;stroke-linecap:butt;stroke-linejoin:miter;stroke-opacity:1"
       d="m 18,9.5 h 3"
       id="path861" />
    <path
       style="opacity:1;fill:none;stroke:#abacae;stroke-width:1px;stroke-linecap:butt;stroke-linejoin:miter;stroke-opacity:1"
       d="m 14,11.5 h 6"
       id="path867" />
    <path
       style="opacity:1;fill:none;stroke:#abacae;stroke-width:1px;stroke-linecap:butt;stroke-linejoin:miter;stroke-opacity:1"
       d="m 11,13.5 h 6"
       id="path873" />
    <path
       style="opacity:1;fill:none;stroke:#abacae;stroke-width:1px;stroke-linecap:butt;stroke-linejoin:miter;stroke-opacity:1"
       d="m 18,13.5 h 3"
       id="path875" />
    <path
       style="fill:none;stroke:#abacae;stroke-width:1px;stroke-linecap:butt;stroke-linejoin:miter;stroke-opacity:1"
       d="m 8,15.5 h 6"
       id="path883" />
    <path
       style="fill:none;stroke:#abacae;stroke-width:1px;stroke-linecap:butt;stroke-linejoin:miter;stroke-opacity:1"
       d="m 15,15.5 h 3"
       id="path885" />
    <path
       style="fill:none;stroke:#abacae;stroke-width:1px;stroke-linecap:butt;stroke-linejoin:miter;stroke-opacity:1"
       d="m 19,15.5 h 2"
       id="path887" />
    <path
       style="fill:none;stroke:#abacae;stroke-width:1px;stroke-linecap:butt;stroke-linejoin:miter;stroke-opacity:1"
       d="m 8,17.5 h 8"
       id="path899" />
    <path
       style="fill:none;stroke:#abacae;stroke-width:1px;stroke-linecap:butt;stroke-linejoin:miter;stroke-opacity:1"
       d="m 17,17.5 h 4"
       id="path901" />
  </g>
</svg>
