<?xml version="1.0" encoding="UTF-8" standalone="no"?>
<svg
   xmlns:dc="http://purl.org/dc/elements/1.1/"
   xmlns:cc="http://creativecommons.org/ns#"
   xmlns:rdf="http://www.w3.org/1999/02/22-rdf-syntax-ns#"
   xmlns:svg="http://www.w3.org/2000/svg"
   xmlns="http://www.w3.org/2000/svg"
   xmlns:xlink="http://www.w3.org/1999/xlink"
   id="svg2526"
   height="32"
   width="32"
   version="1.0">
  <metadata
     id="metadata58">
    <rdf:RDF>
      <cc:Work
         rdf:about="">
        <dc:format>image/svg+xml</dc:format>
        <dc:type
           rdf:resource="http://purl.org/dc/dcmitype/StillImage" />
        <dc:title />
      </cc:Work>
    </rdf:RDF>
  </metadata>
  <defs
     id="defs2528">
    <linearGradient
       id="linearGradient5060">
      <stop
         offset="0"
         style="stop-color:#000000;stop-opacity:1"
         id="stop5062" />
      <stop
         offset="1"
         style="stop-color:#000000;stop-opacity:0"
         id="stop5064" />
    </linearGradient>
    <linearGradient
       id="linearGradient5048">
      <stop
         offset="0"
         style="stop-color:#000000;stop-opacity:0"
         id="stop5050" />
      <stop
         offset="0.5"
         style="stop-color:#000000;stop-opacity:1"
         id="stop5056" />
      <stop
         offset="1"
         style="stop-color:#000000;stop-opacity:0"
         id="stop5052" />
    </linearGradient>
    <linearGradient
       gradientTransform="matrix(0.05633073,0,0,0.01647059,-4.3595357,20.961096)"
       gradientUnits="userSpaceOnUse"
       xlink:href="#linearGradient5048"
       id="linearGradient3188"
       y2="609.50507"
       x2="302.85715"
       y1="366.64789"
       x1="302.85715" />
    <radialGradient
       gradientTransform="matrix(-0.01927752,0,0,0.01647059,14.017952,20.961131)"
       gradientUnits="userSpaceOnUse"
       xlink:href="#linearGradient5060"
       id="radialGradient3190"
       fy="486.64789"
       fx="605.71429"
       r="117.14286"
       cy="486.64789"
       cx="605.71429" />
    <radialGradient
       gradientTransform="matrix(0.01927752,0,0,0.01647059,17.982045,20.961131)"
       gradientUnits="userSpaceOnUse"
       xlink:href="#linearGradient5060"
       id="radialGradient3192"
       fy="486.64789"
       fx="605.71429"
       r="117.14286"
       cy="486.64789"
       cx="605.71429" />
    <linearGradient
       id="linearGradient3462">
      <stop
         offset="0"
         style="stop-color:#ffffff;stop-opacity:1"
         id="stop3464" />
      <stop
         offset="0.04347826"
         style="stop-color:#ffffff;stop-opacity:0.23529412"
         id="stop3466" />
      <stop
         offset="0.95433193"
         style="stop-color:#ffffff;stop-opacity:0.15686275"
         id="stop3468" />
      <stop
         offset="1"
         style="stop-color:#ffffff;stop-opacity:0.39215687"
         id="stop3470" />
    </linearGradient>
    <linearGradient
       gradientTransform="matrix(0.78378379,0,0,0.62162162,-2.8108146,2.0810823)"
       gradientUnits="userSpaceOnUse"
       xlink:href="#linearGradient3462"
       id="linearGradient3217"
       y2="41.695652"
       x2="40.290417"
       y1="3.0869546"
       x1="40.586212" />
    <radialGradient
       cx="6.7304144"
       cy="9.9571075"
       r="12.671875"
       fx="6.2001843"
       fy="9.9571075"
       id="radialGradient4388"
       xlink:href="#linearGradient2867-449-88-871-390-598-476-591-434-148-57-177-8-3-3-6-4-8-8-8-5"
       gradientUnits="userSpaceOnUse"
       gradientTransform="matrix(0,6.5752286,-8.07228,0,94.451918,-58.611442)" />
    <linearGradient
       id="linearGradient2867-449-88-871-390-598-476-591-434-148-57-177-8-3-3-6-4-8-8-8-5">
      <stop
         id="stop3750-1-0-7-6-6-1-3-9-3"
         style="stop-color:#ffffff;stop-opacity:1"
         offset="0" />
      <stop
         id="stop3752-3-7-4-0-32-8-923-0-7"
         style="stop-color:#fafafa;stop-opacity:1"
         offset="0.26238" />
      <stop
         id="stop3754-1-8-5-2-7-6-7-1-9"
         style="stop-color:#d4d4d4;stop-opacity:1"
         offset="0.704952" />
      <stop
         id="stop3756-1-6-2-6-6-1-96-6-0"
         style="stop-color:#abacae;stop-opacity:1"
         offset="1" />
    </linearGradient>
  </defs>
  <g
     id="g995">
    <g
       id="g867">
      <g
         style="opacity:0.4"
         id="g4176">
        <rect
           style="display:inline;overflow:visible;visibility:visible;fill:url(#linearGradient3188);fill-opacity:1;fill-rule:nonzero;stroke:none;stroke-width:1;marker:none"
           id="rect2879"
           y="27"
           x="2.4001522"
           height="3.9999995"
           width="27.199696" />
        <path
           style="display:inline;overflow:visible;visibility:visible;fill:url(#radialGradient3190);fill-opacity:1;fill-rule:nonzero;stroke:none;stroke-width:1;marker:none"
           id="path2881"
           d="m 2.4001523,27.000173 v 3.99978 c -0.9927447,0.0075 -2.3999731,-0.896148 -2.3999731,-2.000148 0,-1.103997 1.1078281,-1.99963 2.3999731,-1.999632 z" />
        <path
           style="display:inline;overflow:visible;visibility:visible;fill:url(#radialGradient3192);fill-opacity:1;fill-rule:nonzero;stroke:none;stroke-width:1;marker:none"
           id="path2883"
           d="m 29.599848,27.000173 v 3.99978 c 0.992744,0.0075 2.399973,-0.896148 2.399973,-2.000148 0,-1.103997 -1.107828,-1.99963 -2.399973,-1.999632 z" />
      </g>
      <rect
         style="color:#000000;clip-rule:nonzero;display:inline;overflow:visible;visibility:visible;opacity:1;isolation:auto;mix-blend-mode:normal;color-interpolation:sRGB;color-interpolation-filters:linearRGB;solid-color:#000000;solid-opacity:1;fill:url(#radialGradient4388);fill-opacity:1;fill-rule:nonzero;stroke:none;stroke-width:0.99999994;stroke-linecap:butt;stroke-linejoin:miter;stroke-miterlimit:4;stroke-dasharray:none;stroke-dashoffset:0;stroke-opacity:1;marker:none;color-rendering:auto;image-rendering:auto;shape-rendering:auto;text-rendering:auto;enable-background:accumulate"
         id="rect4181"
         width="30"
         height="25"
         x="1"
         y="4"
         rx="0.5"
         ry="0.5" />
      <rect
         ry="1"
         rx="1"
         y="3.5"
         x="0.5"
         height="26"
         width="31"
         id="rect4174"
         style="color:#000000;clip-rule:nonzero;display:inline;overflow:visible;visibility:visible;opacity:0.3;isolation:auto;mix-blend-mode:normal;color-interpolation:sRGB;color-interpolation-filters:linearRGB;solid-color:#000000;solid-opacity:1;fill:none;fill-opacity:1;fill-rule:nonzero;stroke:#000000;stroke-width:1;stroke-linecap:round;stroke-linejoin:round;stroke-miterlimit:4;stroke-dasharray:none;stroke-dashoffset:0;stroke-opacity:1;color-rendering:auto;image-rendering:auto;shape-rendering:auto;text-rendering:auto;enable-background:accumulate" />
      <path
         d="m 1.5,4.5 h 29 v 24 h -29 z"
         style="opacity:1;fill:none;stroke:url(#linearGradient3217);stroke-width:0.99999988;stroke-linecap:round;stroke-linejoin:round;stroke-miterlimit:4;stroke-dashoffset:0;stroke-opacity:1"
         id="rect6741-5-0-2-3" />
    </g>
    <path
       style="font-style:normal;font-variant:normal;font-weight:normal;font-stretch:normal;font-size:medium;line-height:1.25;font-family:Raleway;-inkscape-font-specification:'Raleway, Normal';font-variant-ligatures:normal;font-variant-caps:normal;font-variant-numeric:normal;font-feature-settings:normal;text-align:start;letter-spacing:0px;word-spacing:0px;writing-mode:lr-tb;text-anchor:start;fill:#555761;fill-opacity:1;stroke:none"
       d="M 13.169922 5.90625 C 12.689922 5.90625 12.244827 6.0084462 11.835938 6.2128906 C 11.427049 6.4173351 11.071753 6.7019618 10.769531 7.0664062 C 10.476198 7.4219618 10.245061 7.8479254 10.076172 8.3457031 C 9.9072833 8.834592 9.8222656 9.3742708 9.8222656 9.9609375 C 9.8222656 10.547604 9.9072833 11.088159 10.076172 11.585938 C 10.245061 12.074826 10.476198 12.502743 10.769531 12.867188 C 11.071753 13.222743 11.427049 13.502587 11.835938 13.707031 C 12.244827 13.902587 12.689922 14 13.169922 14 C 13.649922 14 14.095018 13.902587 14.503906 13.707031 C 14.912795 13.502587 15.263307 13.222743 15.556641 12.867188 C 15.858863 12.502743 16.094783 12.074826 16.263672 11.585938 C 16.432561 11.08816 16.515625 10.547604 16.515625 9.9609375 C 16.515625 9.3742708 16.432561 8.834592 16.263672 8.3457031 C 16.094783 7.8479254 15.858863 7.4219618 15.556641 7.0664062 C 15.263307 6.7019618 14.912795 6.4173351 14.503906 6.2128906 C 14.095018 6.0084462 13.649922 5.90625 13.169922 5.90625 z M 6.1738281 6.2539062 C 6.1560503 6.2983507 6.071033 6.3861979 5.9199219 6.5195312 C 5.7688108 6.6528646 5.5815972 6.7961545 5.359375 6.9472656 C 5.1460417 7.0983767 4.9149046 7.2301476 4.6660156 7.3457031 C 4.4260157 7.4612587 4.2044445 7.5195312 4 7.5195312 L 4 8.4003906 C 4.1688889 8.4003906 4.3637153 8.3640799 4.5859375 8.2929688 C 4.8081598 8.2218576 5.0221181 8.1340104 5.2265625 8.0273438 C 5.4398958 7.9206771 5.6318923 7.8041319 5.8007812 7.6796875 C 5.978559 7.555243 6.102717 7.440651 6.1738281 7.3339844 L 6.1738281 13.039062 L 4.2792969 13.039062 L 4.2792969 13.867188 L 8.8007812 13.867188 L 8.8007812 13.039062 L 7.1074219 13.039062 L 7.1074219 6.2539062 L 6.1738281 6.2539062 z M 13.169922 6.7597656 C 13.525477 6.7597656 13.849245 6.84 14.142578 7 C 14.4448 7.1511111 14.702682 7.3698525 14.916016 7.6542969 C 15.129349 7.9298524 15.2946 8.2631857 15.410156 8.6542969 C 15.5346 9.0454079 15.595703 9.4809375 15.595703 9.9609375 C 15.595703 10.440937 15.5346 10.876467 15.410156 11.267578 C 15.2946 11.658689 15.129349 11.994853 14.916016 12.279297 C 14.702682 12.554852 14.4448 12.768811 14.142578 12.919922 C 13.849245 13.071033 13.525477 13.146484 13.169922 13.146484 C 12.805477 13.146484 12.472144 13.071033 12.169922 12.919922 C 11.876589 12.768811 11.62349 12.554852 11.410156 12.279297 C 11.196823 11.994853 11.026788 11.658689 10.902344 11.267578 C 10.786788 10.876467 10.730469 10.440937 10.730469 9.9609375 C 10.730469 9.4809375 10.786788 9.0454079 10.902344 8.6542969 C 11.026788 8.2631857 11.196823 7.9298524 11.410156 7.6542969 C 11.62349 7.3698525 11.876589 7.1511111 12.169922 7 C 12.472144 6.84 12.805477 6.7597656 13.169922 6.7597656 z "
       id="path857" />
    <path
       style="opacity:0.8;fill:none;stroke:#7e8087;stroke-width:1px;stroke-linecap:butt;stroke-linejoin:miter;stroke-opacity:1"
       d="m 18,7.5 h 4"
       id="path855" />
    <path
       style="opacity:0.8;fill:none;stroke:#7e8087;stroke-width:1px;stroke-linecap:butt;stroke-linejoin:miter;stroke-opacity:1"
       d="m 23,7.5 h 5"
       id="path857-7" />
    <path
       style="opacity:1;fill:none;stroke:#abacae;stroke-width:1px;stroke-linecap:butt;stroke-linejoin:miter;stroke-opacity:1"
       d="m 18,10.5 h 4"
       id="path859" />
    <path
       style="opacity:1;fill:none;stroke:#abacae;stroke-width:1px;stroke-linecap:butt;stroke-linejoin:miter;stroke-opacity:1"
       d="m 23,10.5 h 4"
       id="path861" />
    <path
       style="opacity:1;fill:none;stroke:#abacae;stroke-width:1px;stroke-linecap:butt;stroke-linejoin:miter;stroke-opacity:1"
       d="m 18,12.5 h 6"
       id="path867" />
    <path
       style="opacity:1;fill:none;stroke:#abacae;stroke-width:1px;stroke-linecap:butt;stroke-linejoin:miter;stroke-opacity:1"
       d="m 25,12.5 h 3"
       id="path869" />
    <path
       style="opacity:1;fill:none;stroke:#abacae;stroke-width:1px;stroke-linecap:butt;stroke-linejoin:miter;stroke-opacity:1"
       d="m 17,14.5 h 6"
       id="path873" />
    <path
       style="opacity:1;fill:none;stroke:#abacae;stroke-width:1px;stroke-linecap:butt;stroke-linejoin:miter;stroke-opacity:1"
       d="m 24,14.5 h 3"
       id="path875" />
    <path
       style="fill:none;stroke:#abacae;stroke-width:1px;stroke-linecap:butt;stroke-linejoin:miter;stroke-opacity:1"
       d="m 12,16.5 h 6"
       id="path883" />
    <path
       style="fill:none;stroke:#abacae;stroke-width:1px;stroke-linecap:butt;stroke-linejoin:miter;stroke-opacity:1"
       d="m 19,16.5 h 3"
       id="path885" />
    <path
       style="fill:none;stroke:#abacae;stroke-width:1px;stroke-linecap:butt;stroke-linejoin:miter;stroke-opacity:1"
       d="m 23,16.5 h 5"
       id="path887" />
    <path
       style="fill:none;stroke:#abacae;stroke-width:1px;stroke-linecap:butt;stroke-linejoin:miter;stroke-opacity:1"
       d="m 12,18.5 h 8"
       id="path899" />
    <path
       style="fill:none;stroke:#abacae;stroke-width:1px;stroke-linecap:butt;stroke-linejoin:miter;stroke-opacity:1"
       d="m 21,18.5 h 7"
       id="path901" />
    <path
       style="fill:none;stroke:#abacae;stroke-width:1px;stroke-linecap:butt;stroke-linejoin:miter;stroke-opacity:1"
       d="m 13,20.5 h 7"
       id="path913" />
    <path
       style="fill:none;stroke:#abacae;stroke-width:1px;stroke-linecap:butt;stroke-linejoin:miter;stroke-opacity:1"
       d="m 21,20.5 h 6"
       id="path915" />
    <path
       id="path948"
       d="M 28,22.5 H 18"
       style="fill:none;stroke:#abacae;stroke-width:1px;stroke-linecap:butt;stroke-linejoin:miter;stroke-opacity:1" />
    <path
       id="path950"
       d="M 17,22.5 H 12"
       style="fill:none;stroke:#abacae;stroke-width:1px;stroke-linecap:butt;stroke-linejoin:miter;stroke-opacity:1" />
    <path
       id="path962"
       d="M 27,24.5 H 25"
       style="fill:none;stroke:#abacae;stroke-width:1px;stroke-linecap:butt;stroke-linejoin:miter;stroke-opacity:1" />
    <path
       id="path964"
       d="M 24,24.5 H 16"
       style="fill:none;stroke:#abacae;stroke-width:1px;stroke-linecap:butt;stroke-linejoin:miter;stroke-opacity:1" />
    <path
       id="path966"
       d="M 15,24.5 H 13"
       style="fill:none;stroke:#abacae;stroke-width:1px;stroke-linecap:butt;stroke-linejoin:miter;stroke-opacity:1" />
    <path
       id="path976"
       d="M 28,26.5 H 22"
       style="fill:none;stroke:#abacae;stroke-width:1px;stroke-linecap:butt;stroke-linejoin:miter;stroke-opacity:1" />
    <path
       id="path978"
       d="M 21,26.5 H 16"
       style="fill:none;stroke:#abacae;stroke-width:1px;stroke-linecap:butt;stroke-linejoin:miter;stroke-opacity:1" />
    <path
       id="path980"
       d="M 15,26.5 H 12"
       style="fill:none;stroke:#abacae;stroke-width:1px;stroke-linecap:butt;stroke-linejoin:miter;stroke-opacity:1" />
  </g>
</svg>
