<?xml version="1.0" encoding="UTF-8" standalone="no"?>
<svg
   xmlns:dc="http://purl.org/dc/elements/1.1/"
   xmlns:cc="http://creativecommons.org/ns#"
   xmlns:rdf="http://www.w3.org/1999/02/22-rdf-syntax-ns#"
   xmlns:svg="http://www.w3.org/2000/svg"
   xmlns="http://www.w3.org/2000/svg"
   xmlns:xlink="http://www.w3.org/1999/xlink"
   id="svg2453"
   height="64"
   width="64"
   version="1.0">
  <metadata
     id="metadata35">
    <rdf:RDF>
      <cc:Work
         rdf:about="">
        <dc:format>image/svg+xml</dc:format>
        <dc:type
           rdf:resource="http://purl.org/dc/dcmitype/StillImage" />
        <dc:title />
      </cc:Work>
    </rdf:RDF>
  </metadata>
  <defs
     id="defs2455">
    <linearGradient
       id="linearGradient3462">
      <stop
         offset="0"
         style="stop-color:#ffffff;stop-opacity:1"
         id="stop3464" />
      <stop
         offset="0.03457849"
         style="stop-color:#ffffff;stop-opacity:0.23529412"
         id="stop3466" />
      <stop
         offset="0.96375686"
         style="stop-color:#ffffff;stop-opacity:0.15686275"
         id="stop3468" />
      <stop
         offset="1"
         style="stop-color:#ffffff;stop-opacity:0.39215687"
         id="stop3470" />
    </linearGradient>
    <linearGradient
       id="linearGradient5060-2">
      <stop
         offset="0"
         style="stop-color:#000000;stop-opacity:1"
         id="stop5062-3" />
      <stop
         offset="1"
         style="stop-color:#000000;stop-opacity:0"
         id="stop5064-1" />
    </linearGradient>
    <linearGradient
       id="linearGradient5048-8">
      <stop
         offset="0"
         style="stop-color:#000000;stop-opacity:0"
         id="stop5050-4" />
      <stop
         offset="0.5"
         style="stop-color:#000000;stop-opacity:1"
         id="stop5056-5" />
      <stop
         offset="1"
         style="stop-color:#000000;stop-opacity:0"
         id="stop5052-1" />
    </linearGradient>
    <radialGradient
       gradientTransform="matrix(0.03212956,0,0,0.02058823,40.136784,48.451416)"
       gradientUnits="userSpaceOnUse"
       xlink:href="#linearGradient5060-2"
       id="radialGradient3172"
       fy="486.64789"
       fx="605.71429"
       r="117.14286"
       cy="486.64789"
       cx="605.71429" />
    <radialGradient
       gradientTransform="matrix(-0.03212956,0,0,0.02058823,23.863217,48.451416)"
       gradientUnits="userSpaceOnUse"
       xlink:href="#linearGradient5060-2"
       id="radialGradient3175"
       fy="486.64789"
       fx="605.71429"
       r="117.14286"
       cy="486.64789"
       cx="605.71429" />
    <linearGradient
       gradientTransform="matrix(0.11390532,0,0,0.02058823,-9.1686406,48.451416)"
       gradientUnits="userSpaceOnUse"
       xlink:href="#linearGradient5048-8"
       id="linearGradient3178"
       y2="609.50507"
       x2="302.85715"
       y1="366.64789"
       x1="302.85715" />
    <linearGradient
       y2="42.437775"
       x2="40.290417"
       y1="5.4143372"
       x1="40.290417"
       gradientTransform="matrix(1.5405405,0,0,1.2162162,-4.9729751,5.8820652)"
       gradientUnits="userSpaceOnUse"
       id="linearGradient3133"
       xlink:href="#linearGradient3462" />
    <radialGradient
       r="12.671875"
       fy="10.031169"
       fx="7.1183529"
       cy="10.031169"
       cx="7.1183529"
       gradientTransform="matrix(0,10.304933,-18.623921,0,218.8197,-83.936968)"
       gradientUnits="userSpaceOnUse"
       id="radialGradient3136"
       xlink:href="#linearGradient2867-449-88-871-390-598-476-591-434-148-57-177-8-3-3-6-4-8-8-8-5" />
    <linearGradient
       id="linearGradient2867-449-88-871-390-598-476-591-434-148-57-177-8-3-3-6-4-8-8-8-5">
      <stop
         id="stop3750-1-0-7-6-6-1-3-9-3"
         style="stop-color:#ffffff;stop-opacity:1"
         offset="0" />
      <stop
         id="stop3752-3-7-4-0-32-8-923-0-7"
         style="stop-color:#fafafa;stop-opacity:1"
         offset="0.26238" />
      <stop
         id="stop3754-1-8-5-2-7-6-7-1-9"
         style="stop-color:#d4d4d4;stop-opacity:1"
         offset="0.704952" />
      <stop
         id="stop3756-1-6-2-6-6-1-96-6-0"
         style="stop-color:#abacae;stop-opacity:1"
         offset="1" />
    </linearGradient>
  </defs>
  <g
     id="g954">
    <g
       id="g4168">
      <rect
         style="opacity:0.3;fill:url(#linearGradient3178);fill-opacity:1;fill-rule:nonzero;stroke:none;stroke-width:1;marker:none;visibility:visible;display:inline;overflow:visible"
         id="rect2879-0"
         y="56"
         x="4.5"
         height="5"
         width="55" />
      <path
         style="opacity:0.3;fill:url(#radialGradient3175);fill-opacity:1;fill-rule:nonzero;stroke:none;stroke-width:1;marker:none;visibility:visible;display:inline;overflow:visible"
         id="path2881-4"
         d="m 4.5,56.000216 c 0,0 0,4.9997 0,4.9997 -1.654593,0.01 -4,-1.1202 -4,-2.5002 0,-1.38 1.8464008,-2.4995 4,-2.4995 z" />
      <path
         style="opacity:0.3;fill:url(#radialGradient3172);fill-opacity:1;fill-rule:nonzero;stroke:none;stroke-width:1;marker:none;visibility:visible;display:inline;overflow:visible"
         id="path2883-6"
         d="m 59.5,56.000216 c 0,0 0,4.9997 0,4.9997 1.654592,0.01 4,-1.1202 4,-2.5002 0,-1.38 -1.846401,-2.4995 -4,-2.4995 z" />
      <rect
         style="color:#000000;display:inline;overflow:visible;visibility:visible;opacity:1;fill:url(#radialGradient3136);fill-opacity:1;fill-rule:nonzero;stroke:none;stroke-width:0.99999994;marker:none;enable-background:accumulate"
         id="rect5505-21-3-8-5-2"
         y="12"
         x="3"
         ry="1.5"
         rx="1.5"
         height="46"
         width="58" />
      <rect
         style="opacity:1;fill:none;stroke:url(#linearGradient3133);stroke-width:1;stroke-linecap:round;stroke-linejoin:round;stroke-miterlimit:4;stroke-dasharray:none;stroke-dashoffset:0;stroke-opacity:1"
         id="rect6741-5-0-2-3"
         y="12.5"
         x="3.5"
         ry="1"
         rx="1"
         height="45.071251"
         width="57" />
      <rect
         style="opacity:0.3;color:#000000;fill:none;stroke:#000000;stroke-width:1;stroke-linecap:round;stroke-linejoin:round;stroke-miterlimit:4;stroke-opacity:1;stroke-dasharray:none;stroke-dashoffset:0;marker:none;visibility:visible;display:inline;overflow:visible;enable-background:accumulate;clip-rule:nonzero;isolation:auto;mix-blend-mode:normal;color-interpolation:sRGB;color-interpolation-filters:linearRGB;solid-color:#000000;solid-opacity:1;fill-opacity:1;fill-rule:nonzero;filter-blend-mode:normal;filter-gaussianBlur-deviation:0;color-rendering:auto;image-rendering:auto;shape-rendering:auto;text-rendering:auto"
         id="rect5505-21-3-8-9-1-1"
         y="11.5"
         x="2.5"
         ry="2"
         rx="2"
         height="47"
         width="59" />
    </g>
    <path
       id="path896"
       d="M 22.671875 17.050781 C 21.903875 17.050781 21.193285 17.213904 20.539062 17.541016 C 19.88484 17.868127 19.315587 18.323139 18.832031 18.90625 C 18.362698 19.475139 17.992879 20.158633 17.722656 20.955078 C 17.452434 21.7373 17.316406 22.59649 17.316406 23.535156 C 17.316406 24.473823 17.452434 25.342227 17.722656 26.138672 C 17.992879 26.920894 18.362698 27.604389 18.832031 28.1875 C 19.315587 28.756389 19.88484 29.204139 20.539062 29.53125 C 21.193285 29.844139 21.903875 30 22.671875 30 C 23.439875 30 24.150466 29.844139 24.804688 29.53125 C 25.45891 29.204139 26.020901 28.756389 26.490234 28.1875 C 26.97379 27.604389 27.350872 26.920894 27.621094 26.138672 C 27.891316 25.342227 28.025391 24.473823 28.025391 23.535156 C 28.025391 22.59649 27.891316 21.7373 27.621094 20.955078 C 27.350872 20.158633 26.97379 19.475139 26.490234 18.90625 C 26.020901 18.323139 25.45891 17.868127 24.804688 17.541016 C 24.150466 17.213904 23.439875 17.050781 22.671875 17.050781 z M 11.476562 17.605469 C 11.448118 17.67658 11.314044 17.817917 11.072266 18.03125 C 10.830488 18.244583 10.531337 18.473066 10.175781 18.714844 C 9.8344481 18.956621 9.4646285 19.170579 9.0664062 19.355469 C 8.6824062 19.540357 8.3271111 19.632812 8 19.632812 L 8 21.039062 C 8.2702223 21.039063 8.5838976 20.982919 8.9394531 20.869141 C 9.2950087 20.755363 9.6357796 20.614026 9.9628906 20.443359 C 10.304224 20.272693 10.610637 20.087783 10.880859 19.888672 C 11.165304 19.689561 11.362784 19.504651 11.476562 19.333984 L 11.476562 28.464844 L 8.4472656 28.464844 L 8.4472656 29.787109 L 15.679688 29.787109 L 15.679688 28.464844 L 12.970703 28.464844 L 12.970703 17.605469 L 11.476562 17.605469 z M 22.671875 18.416016 C 23.240764 18.416016 23.759182 18.544781 24.228516 18.800781 C 24.712072 19.042559 25.125464 19.390592 25.466797 19.845703 C 25.80813 20.286592 26.070971 20.819535 26.255859 21.445312 C 26.454971 22.07109 26.554687 22.767156 26.554688 23.535156 C 26.554688 24.303156 26.454971 25.001175 26.255859 25.626953 C 26.070971 26.25273 25.80813 26.792936 25.466797 27.248047 C 25.125464 27.688936 24.712072 28.029706 24.228516 28.271484 C 23.759182 28.513262 23.240764 28.634766 22.671875 28.634766 C 22.088764 28.634766 21.555821 28.513262 21.072266 28.271484 C 20.602932 28.029706 20.196802 27.688936 19.855469 27.248047 C 19.514135 26.792936 19.244033 26.25273 19.044922 25.626953 C 18.860033 25.001175 18.767578 24.303156 18.767578 23.535156 C 18.767578 22.767156 18.860033 22.071091 19.044922 21.445312 C 19.244033 20.819535 19.514135 20.286592 19.855469 19.845703 C 20.196802 19.390592 20.602932 19.042559 21.072266 18.800781 C 21.555821 18.544781 22.088764 18.416016 22.671875 18.416016 z "
       style="font-style:normal;font-variant:normal;font-weight:normal;font-stretch:normal;font-size:medium;line-height:1.25;font-family:Raleway;-inkscape-font-specification:'Raleway, Normal';font-variant-ligatures:normal;font-variant-caps:normal;font-variant-numeric:normal;font-feature-settings:normal;text-align:start;letter-spacing:0px;word-spacing:0px;writing-mode:lr-tb;text-anchor:start;fill:#555761;fill-opacity:1;stroke:none" />
    <path
       style="fill:none;stroke:#7e8087;stroke-width:1px;stroke-linecap:butt;stroke-linejoin:miter;stroke-opacity:1;opacity:0.8"
       d="m 32,20.5 h 8"
       id="path855" />
    <path
       style="fill:none;stroke:#7e8087;stroke-width:1px;stroke-linecap:butt;stroke-linejoin:miter;stroke-opacity:1;opacity:0.8"
       d="M 41,20.5 H 56"
       id="path857" />
    <path
       style="fill:none;stroke:#abacae;stroke-width:1px;stroke-linecap:butt;stroke-linejoin:miter;stroke-opacity:1;opacity:1"
       d="m 32,24.5 h 4"
       id="path859" />
    <path
       style="fill:none;stroke:#abacae;stroke-width:1px;stroke-linecap:butt;stroke-linejoin:miter;stroke-opacity:1;opacity:1"
       d="m 37,24.5 h 4"
       id="path861" />
    <path
       style="fill:none;stroke:#abacae;stroke-width:1px;stroke-linecap:butt;stroke-linejoin:miter;stroke-opacity:1;opacity:1"
       d="m 42,24.5 h 7"
       id="path863" />
    <path
       style="fill:none;stroke:#abacae;stroke-width:1px;stroke-linecap:butt;stroke-linejoin:miter;stroke-opacity:1;opacity:1"
       d="m 50,24.5 h 4"
       id="path865" />
    <path
       style="opacity:1;fill:none;stroke:#abacae;stroke-width:1px;stroke-linecap:butt;stroke-linejoin:miter;stroke-opacity:1"
       d="m 30,27.5 h 9"
       id="path867" />
    <path
       style="fill:none;stroke:#abacae;stroke-width:1px;stroke-linecap:butt;stroke-linejoin:miter;stroke-opacity:1;opacity:1"
       d="m 40,27.5 h 6"
       id="path869" />
    <path
       style="fill:none;stroke:#abacae;stroke-width:1px;stroke-linecap:butt;stroke-linejoin:miter;stroke-opacity:1;opacity:1"
       d="m 47,27.5 h 8"
       id="path871" />
    <path
       style="opacity:1;fill:none;stroke:#abacae;stroke-width:1px;stroke-linecap:butt;stroke-linejoin:miter;stroke-opacity:1"
       d="m 28,30.5 h 7"
       id="path873" />
    <path
       style="fill:none;stroke:#abacae;stroke-width:1px;stroke-linecap:butt;stroke-linejoin:miter;stroke-opacity:1;opacity:1"
       d="m 36,30.5 h 8"
       id="path875" />
    <path
       style="fill:none;stroke:#abacae;stroke-width:1px;stroke-linecap:butt;stroke-linejoin:miter;stroke-opacity:1;opacity:1"
       d="M 45,30.5 H 56"
       id="path877" />
    <path
       style="fill:none;stroke:#abacae;stroke-width:1px;stroke-linecap:butt;stroke-linejoin:miter;stroke-opacity:1"
       d="m 26,33.5 h 6"
       id="path883" />
    <path
       style="fill:none;stroke:#abacae;stroke-width:1px;stroke-linecap:butt;stroke-linejoin:miter;stroke-opacity:1"
       d="m 33,33.5 h 3"
       id="path885" />
    <path
       style="fill:none;stroke:#abacae;stroke-width:1px;stroke-linecap:butt;stroke-linejoin:miter;stroke-opacity:1"
       d="m 37,33.5 h 4"
       id="path887" />
    <path
       style="fill:none;stroke:#abacae;stroke-width:1px;stroke-linecap:butt;stroke-linejoin:miter;stroke-opacity:1"
       d="m 42,33.5 h 5"
       id="path889" />
    <path
       style="fill:none;stroke:#abacae;stroke-width:1px;stroke-linecap:butt;stroke-linejoin:miter;stroke-opacity:1"
       d="m 48,33.5 h 7"
       id="path891" />
    <path
       style="fill:none;stroke:#abacae;stroke-width:1px;stroke-linecap:butt;stroke-linejoin:miter;stroke-opacity:1"
       d="m 22,36.5 h 3"
       id="path897" />
    <path
       style="fill:none;stroke:#abacae;stroke-width:1px;stroke-linecap:butt;stroke-linejoin:miter;stroke-opacity:1"
       d="m 26,36.5 h 8"
       id="path899" />
    <path
       style="fill:none;stroke:#abacae;stroke-width:1px;stroke-linecap:butt;stroke-linejoin:miter;stroke-opacity:1"
       d="m 35,36.5 h 8"
       id="path901" />
    <path
       style="fill:none;stroke:#abacae;stroke-width:1px;stroke-linecap:butt;stroke-linejoin:miter;stroke-opacity:1"
       d="m 44,36.5 h 5"
       id="path903" />
    <path
       style="fill:none;stroke:#abacae;stroke-width:1px;stroke-linecap:butt;stroke-linejoin:miter;stroke-opacity:1"
       d="m 50,36.5 h 6"
       id="path905" />
    <path
       style="fill:none;stroke:#abacae;stroke-width:1px;stroke-linecap:butt;stroke-linejoin:miter;stroke-opacity:1"
       d="m 22,39.5 h 6"
       id="path911" />
    <path
       style="fill:none;stroke:#abacae;stroke-width:1px;stroke-linecap:butt;stroke-linejoin:miter;stroke-opacity:1"
       d="m 29,39.5 h 5"
       id="path913" />
    <path
       style="fill:none;stroke:#abacae;stroke-width:1px;stroke-linecap:butt;stroke-linejoin:miter;stroke-opacity:1"
       d="m 35,39.5 h 5"
       id="path915" />
    <path
       style="fill:none;stroke:#abacae;stroke-width:1px;stroke-linecap:butt;stroke-linejoin:miter;stroke-opacity:1"
       d="m 41,39.5 h 8"
       id="path917" />
    <path
       style="fill:none;stroke:#abacae;stroke-width:1px;stroke-linecap:butt;stroke-linejoin:miter;stroke-opacity:1"
       d="m 50,39.5 h 6"
       id="path919" />
    <path
       id="path944"
       d="M 56,42.5 H 52"
       style="fill:none;stroke:#abacae;stroke-width:1px;stroke-linecap:butt;stroke-linejoin:miter;stroke-opacity:1" />
    <path
       id="path946"
       d="M 51,42.5 H 44"
       style="fill:none;stroke:#abacae;stroke-width:1px;stroke-linecap:butt;stroke-linejoin:miter;stroke-opacity:1" />
    <path
       id="path948"
       d="M 43,42.5 H 32"
       style="fill:none;stroke:#abacae;stroke-width:1px;stroke-linecap:butt;stroke-linejoin:miter;stroke-opacity:1" />
    <path
       id="path950"
       d="M 31,42.5 H 28"
       style="fill:none;stroke:#abacae;stroke-width:1px;stroke-linecap:butt;stroke-linejoin:miter;stroke-opacity:1" />
    <path
       id="path952"
       d="M 27,42.5 H 23"
       style="fill:none;stroke:#abacae;stroke-width:1px;stroke-linecap:butt;stroke-linejoin:miter;stroke-opacity:1" />
    <path
       id="path958"
       d="M 56,45.5 H 49"
       style="fill:none;stroke:#abacae;stroke-width:1px;stroke-linecap:butt;stroke-linejoin:miter;stroke-opacity:1" />
    <path
       id="path960"
       d="M 48,45.5 H 43"
       style="fill:none;stroke:#abacae;stroke-width:1px;stroke-linecap:butt;stroke-linejoin:miter;stroke-opacity:1" />
    <path
       id="path962"
       d="M 42,45.5 H 39"
       style="fill:none;stroke:#abacae;stroke-width:1px;stroke-linecap:butt;stroke-linejoin:miter;stroke-opacity:1" />
    <path
       id="path964"
       d="M 38,45.5 H 30"
       style="fill:none;stroke:#abacae;stroke-width:1px;stroke-linecap:butt;stroke-linejoin:miter;stroke-opacity:1" />
    <path
       id="path966"
       d="M 29,45.5 H 22"
       style="fill:none;stroke:#abacae;stroke-width:1px;stroke-linecap:butt;stroke-linejoin:miter;stroke-opacity:1" />
    <path
       id="path972"
       d="M 56,48.5 H 48"
       style="fill:none;stroke:#abacae;stroke-width:1px;stroke-linecap:butt;stroke-linejoin:miter;stroke-opacity:1" />
    <path
       id="path974"
       d="M 47,48.5 H 41"
       style="fill:none;stroke:#abacae;stroke-width:1px;stroke-linecap:butt;stroke-linejoin:miter;stroke-opacity:1" />
    <path
       id="path976"
       d="M 40,48.5 H 36"
       style="fill:none;stroke:#abacae;stroke-width:1px;stroke-linecap:butt;stroke-linejoin:miter;stroke-opacity:1" />
    <path
       id="path978"
       d="M 35,48.5 H 30"
       style="fill:none;stroke:#abacae;stroke-width:1px;stroke-linecap:butt;stroke-linejoin:miter;stroke-opacity:1" />
    <path
       id="path980"
       d="M 29,48.5 H 23"
       style="fill:none;stroke:#abacae;stroke-width:1px;stroke-linecap:butt;stroke-linejoin:miter;stroke-opacity:1" />
    <path
       style="fill:none;stroke:#abacae;stroke-width:1px;stroke-linecap:butt;stroke-linejoin:miter;stroke-opacity:1"
       d="M 22,51.5 H 32"
       id="path1048" />
    <path
       style="fill:none;stroke:#abacae;stroke-width:1px;stroke-linecap:butt;stroke-linejoin:miter;stroke-opacity:1"
       d="m 33,51.5 h 3"
       id="path1050" />
    <path
       style="fill:none;stroke:#abacae;stroke-width:1px;stroke-linecap:butt;stroke-linejoin:miter;stroke-opacity:1"
       d="m 37,51.5 h 4"
       id="path1052" />
    <path
       style="fill:none;stroke:#abacae;stroke-width:1px;stroke-linecap:butt;stroke-linejoin:miter;stroke-opacity:1"
       d="m 42,51.5 h 5"
       id="path1054" />
    <path
       style="fill:none;stroke:#abacae;stroke-width:1px;stroke-linecap:butt;stroke-linejoin:miter;stroke-opacity:1"
       d="m 48,51.5 h 7"
       id="path1056" />
  </g>
</svg>
